<svg version="1.1" id="Layer_1" xmlns="http://www.w3.org/2000/svg" xmlns:xlink="http://www.w3.org/1999/xlink" x="0px" y="0px"
	 width="100%" viewBox="0 0 500 500" enable-background="new 0 0 500 500" xml:space="preserve">
<path fill="#FD0100" opacity="1.000000" stroke="none" 
	d="
M1.000000,177.000000 
	C1.000000,118.014610 1.000000,59.529213 1.000000,1.021910 
	C167.610443,1.021910 334.220886,1.021910 500.915649,1.021910 
	C500.915649,167.568787 500.915649,334.137634 500.915649,500.853241 
	C334.333435,500.853241 167.666733,500.853241 1.000000,500.853241 
	C1.000000,393.112305 1.000000,285.306152 1.000000,177.000000 
M115.500000,50.998074 
	C97.336006,51.002327 79.171791,50.956562 61.008137,51.037460 
	C54.487179,51.066505 51.232288,54.413204 51.024044,60.896820 
	C50.965221,62.728107 51.004154,64.562645 51.004101,66.395691 
	C51.000648,190.378189 50.998974,314.360687 50.992607,438.343170 
	C50.992096,448.271759 53.741512,451.020172 63.770218,451.020111 
	C188.752548,451.019531 313.734894,451.018311 438.717224,451.013611 
	C448.102539,451.013245 451.005646,448.150482 451.006226,438.846252 
	C451.013855,313.697296 451.016602,188.548355 451.011749,63.399403 
	C451.011353,53.804611 448.131073,50.989429 438.454529,50.989681 
	C331.136353,50.992462 223.818176,50.995274 115.500000,50.998074 
z"/>
<path fill="#FEFCFD" opacity="1.000000" stroke="none" 
	d="
M116.000000,50.998074 
	C223.818176,50.995274 331.136353,50.992462 438.454529,50.989681 
	C448.131073,50.989429 451.011353,53.804611 451.011749,63.399403 
	C451.016602,188.548355 451.013855,313.697296 451.006226,438.846252 
	C451.005646,448.150482 448.102539,451.013245 438.717224,451.013611 
	C313.734894,451.018311 188.752548,451.019531 63.770218,451.020111 
	C53.741512,451.020172 50.992096,448.271759 50.992607,438.343170 
	C50.998974,314.360687 51.000648,190.378189 51.004101,66.395691 
	C51.004154,64.562645 50.965221,62.728107 51.024044,60.896820 
	C51.232288,54.413204 54.487179,51.066505 61.008137,51.037460 
	C79.171791,50.956562 97.336006,51.002327 116.000000,50.998074 
M71.674698,432.827637 
	C72.102058,432.768188 72.529411,432.708740 73.642601,432.859558 
	C74.110077,432.788483 74.577553,432.717438 75.675102,432.824402 
	C76.103844,432.766937 76.532578,432.709473 77.880821,432.873779 
	C192.276947,432.886780 306.673096,432.900452 421.069214,432.902039 
	C422.059265,432.902039 423.049347,432.740082 424.811676,432.829987 
	C425.860779,432.769806 426.909851,432.709595 428.764771,432.871490 
	C433.004761,433.558777 433.437042,431.242310 432.823151,427.047424 
	C432.829163,310.705597 432.835724,194.363800 432.832153,78.021980 
	C432.832123,77.029877 432.696045,76.037773 432.845978,74.219360 
	C432.845978,72.644058 432.845978,71.068748 432.845978,69.098122 
	C430.810608,69.213699 429.384766,69.294670 427.187836,69.192940 
	C426.138702,69.251984 425.089539,69.311028 423.122070,69.141914 
	C305.258087,69.141914 187.394073,69.141914 69.329208,69.141914 
	C69.227859,71.295822 69.097992,72.768089 69.097946,74.240356 
	C69.094147,185.850571 69.099442,297.460785 69.117317,409.071014 
	C69.117584,410.727417 69.284286,412.383820 69.193069,414.872437 
	C69.252335,416.567871 69.311600,418.263275 69.144089,420.785553 
	C69.215599,422.204224 69.287109,423.622925 69.177132,425.812225 
	C69.237495,426.860504 69.297859,427.908783 69.138191,429.674316 
	C69.774551,430.664490 70.410912,431.654633 71.674698,432.827637 
z"/>
<path fill="#FC0202" opacity="1.000000" stroke="none" 
	d="
M424.040405,69.370071 
	C425.089539,69.311028 426.138702,69.251984 427.664948,69.574188 
	C430.295898,71.071091 428.145294,75.976410 432.623535,75.045670 
	C432.696045,76.037773 432.832123,77.029877 432.832153,78.021980 
	C432.835724,194.363800 432.829163,310.705597 432.425507,427.568237 
	C430.671539,429.609161 429.315247,431.129272 427.958954,432.649414 
	C426.909851,432.709595 425.860779,432.769806 424.257843,432.399261 
	C421.963104,431.651825 420.222351,431.058533 418.481293,431.057861 
	C306.406708,431.012878 194.332123,431.008453 82.257568,431.082825 
	C80.491806,431.083984 78.726715,432.106232 76.961319,432.651978 
	C76.532578,432.709473 76.103844,432.766937 75.349396,432.443451 
	C74.586067,431.583344 74.148453,431.104218 73.710823,430.625092 
	C73.459465,431.299835 73.208115,431.974548 72.956772,432.649292 
	C72.529411,432.708740 72.102058,432.768188 71.361702,432.412323 
	C70.485207,430.983704 69.921715,429.970367 69.358215,428.957062 
	C69.297859,427.908783 69.237495,426.860504 69.570892,425.305298 
	C69.766724,423.185150 69.568794,421.571930 69.370865,419.958710 
	C69.311600,418.263275 69.252335,416.567871 69.622566,414.285248 
	C70.360054,411.452393 70.936546,409.206848 70.937523,406.961029 
	C70.984894,297.836945 70.981247,188.712814 70.988770,79.588684 
	C70.989365,71.006676 71.007698,70.987968 79.352242,70.987404 
	C192.141602,70.979813 304.930969,70.986534 417.720276,70.907608 
	C419.827362,70.906128 421.933716,69.904854 424.040405,69.370071 
M103.237518,313.210846 
	C100.438347,318.454376 100.943672,323.020081 104.658600,326.050354 
	C108.268089,328.994659 112.927422,328.610962 117.650177,324.685760 
	C120.598282,319.514862 120.352905,315.551636 116.882233,312.281891 
	C113.547653,309.140350 109.467262,309.007507 104.414421,312.043549 
	C104.230087,312.318085 104.045753,312.592651 103.237518,313.210846 
M106.297852,205.290436 
	C106.297852,205.290436 106.629883,205.476410 106.629883,205.476410 
	C106.629883,205.476410 107.001595,205.394684 107.581589,205.845047 
	C108.064674,205.889359 108.547768,205.933670 109.590004,206.306488 
	C114.282722,206.557571 117.686806,204.671143 119.182358,200.114655 
	C120.489143,196.133286 119.769028,192.636810 115.619362,189.952362 
	C115.619362,189.952362 115.188385,189.841751 114.793091,189.198868 
	C109.290054,187.147171 104.440430,188.700439 102.167473,193.242691 
	C100.023857,197.526489 101.466553,201.885559 106.059654,204.995590 
	C106.059654,204.995590 106.140244,204.943848 106.297852,205.290436 
M117.781036,374.256744 
	C117.781036,374.256744 117.417793,374.070221 117.124565,373.511230 
	C116.054008,372.746460 115.078873,371.754272 113.895721,371.257812 
	C109.662239,369.481323 104.498581,371.439392 102.364502,375.475983 
	C100.216629,379.538696 101.208595,383.492798 105.638962,386.400238 
	C109.584282,389.104645 114.022896,388.527374 117.575180,384.500732 
	C120.895523,381.317932 120.285759,378.013184 117.781036,374.256744 
M400.861389,121.503555 
	C400.860016,117.670334 400.891876,113.836761 400.850616,110.003967 
	C400.754181,101.040878 397.686218,97.799889 388.875793,97.797348 
	C297.043121,97.770844 205.210449,97.776497 113.377785,97.809967 
	C104.392738,97.813248 101.244362,100.920387 101.163666,109.777130 
	C101.064957,120.609497 101.075142,131.443909 101.157303,142.276535 
	C101.222809,150.913651 104.418892,154.212860 112.897751,154.213425 
	C205.063538,154.219620 297.229309,154.193298 389.395111,154.135681 
	C397.625092,154.130539 400.751282,150.870575 400.845032,142.501953 
	C400.919678,135.836151 400.860931,129.168884 400.861389,121.503555 
M143.699951,370.851257 
	C142.534134,370.862488 141.361008,370.793427 140.203796,370.898956 
	C135.520599,371.326019 132.939758,374.231750 132.326401,378.579376 
	C131.698517,383.030121 133.780960,386.460938 138.054626,387.970978 
	C140.182068,388.722717 142.621826,388.820038 144.920776,388.822815 
	C183.578125,388.869354 222.235565,388.855713 260.892975,388.852325 
	C303.882690,388.848572 346.872375,388.858002 389.862061,388.818695 
	C396.414307,388.812714 400.673584,385.033905 400.609650,379.572113 
	C400.546448,374.173370 396.586823,370.857941 390.092224,370.857269 
	C308.278564,370.848572 226.464890,370.850006 143.699951,370.851257 
M241.500092,309.796051 
	C209.008743,309.803192 176.517395,309.792908 144.026077,309.830322 
	C136.335007,309.839172 132.183670,313.107574 132.177002,318.935760 
	C132.170380,324.719147 136.436539,327.964325 144.093323,327.999512 
	C144.426544,328.001068 144.759811,327.995789 145.093048,327.995789 
	C225.571701,327.999786 306.050354,328.004944 386.528992,328.002716 
	C388.527405,328.002655 390.548157,328.095734 392.519745,327.842987 
	C397.286072,327.232056 400.750488,323.185181 400.636444,318.595367 
	C400.527313,314.201538 397.131042,310.551147 392.451355,309.994598 
	C390.474243,309.759430 388.459534,309.785431 386.461914,309.785278 
	C338.474640,309.781219 290.487366,309.789764 241.500092,309.796051 
M208.500000,248.998550 
	C187.335297,248.995132 166.170609,248.997162 145.005905,248.985580 
	C136.646423,248.981018 132.139099,252.184448 132.195465,258.132111 
	C132.252365,264.135864 136.491470,267.131836 145.082520,267.133484 
	C224.741623,267.148926 304.400726,267.153320 384.059814,267.153015 
	C386.892029,267.153015 389.739288,267.239471 392.553070,266.988647 
	C397.184967,266.575684 399.802277,263.649017 400.446625,259.283997 
	C401.104614,254.826675 399.084442,251.425903 394.833679,249.818710 
	C393.037964,249.139740 390.942566,249.039963 388.983093,249.038605 
	C329.155426,248.997528 269.327698,249.001541 208.500000,248.998550 
M182.500000,186.016495 
	C169.504333,186.010788 156.508301,185.942139 143.513138,186.019699 
	C133.506409,186.079437 129.599777,190.628616 130.638962,200.576294 
	C130.786423,201.987961 130.455338,203.449600 130.249420,206.152664 
	C136.629486,206.780121 142.814606,207.908432 149.001450,207.917953 
	C227.308640,208.038498 305.616058,207.995850 383.923431,208.011780 
	C385.747009,208.012161 387.631561,207.951065 389.382477,208.364365 
	C394.356567,209.538544 398.616577,207.728500 400.073822,203.387009 
	C401.656036,198.673157 401.334473,193.320297 401.845886,188.217468 
	C396.622467,187.322403 392.778107,186.095276 388.931732,186.088959 
	C320.454651,185.976639 251.977295,186.012527 182.500000,186.016495 
M103.533516,263.979187 
	C106.972008,267.568542 111.027794,268.193024 115.234283,265.791992 
	C118.684273,263.822754 120.775536,260.259155 119.296898,256.591064 
	C118.144432,253.732071 115.400620,250.308380 112.719963,249.610886 
	C110.039864,248.913528 105.877823,250.510208 103.592758,252.506287 
	C100.299034,255.383530 100.672844,259.618073 103.533516,263.979187 
z"/>
<path fill="#F41516" opacity="1.000000" stroke="none" 
	d="
M423.581238,69.255989 
	C421.933716,69.904854 419.827362,70.906128 417.720276,70.907608 
	C304.930969,70.986534 192.141602,70.979813 79.352242,70.987404 
	C71.007698,70.987968 70.989365,71.006676 70.988770,79.588684 
	C70.981247,188.712814 70.984894,297.836945 70.937523,406.961029 
	C70.936546,409.206848 70.360054,411.452393 69.712692,413.869141 
	C69.284286,412.383820 69.117584,410.727417 69.117317,409.071014 
	C69.099442,297.460785 69.094147,185.850571 69.097946,74.240356 
	C69.097992,72.768089 69.227859,71.295822 69.329208,69.141914 
	C187.394073,69.141914 305.258087,69.141914 423.581238,69.255989 
z"/>
<path fill="#F41516" opacity="1.000000" stroke="none" 
	d="
M77.421066,432.762878 
	C78.726715,432.106232 80.491806,431.083984 82.257568,431.082825 
	C194.332123,431.008453 306.406708,431.012878 418.481293,431.057861 
	C420.222351,431.058533 421.963104,431.651825 423.871704,432.311127 
	C423.049347,432.740082 422.059265,432.902039 421.069214,432.902039 
	C306.673096,432.900452 192.276947,432.886780 77.421066,432.762878 
z"/>
<path fill="#F41516" opacity="1.000000" stroke="none" 
	d="
M432.734741,74.632515 
	C428.145294,75.976410 430.295898,71.071091 428.050476,69.665527 
	C429.384766,69.294670 430.810608,69.213699 432.845978,69.098122 
	C432.845978,71.068748 432.845978,72.644058 432.734741,74.632515 
z"/>
<path fill="#F41516" opacity="1.000000" stroke="none" 
	d="
M428.361877,432.760437 
	C429.315247,431.129272 430.671539,429.609161 432.334686,428.023132 
	C433.437042,431.242310 433.004761,433.558777 428.361877,432.760437 
z"/>
<path fill="#F41516" opacity="1.000000" stroke="none" 
	d="
M69.257477,420.372131 
	C69.568794,421.571930 69.766724,423.185150 69.661636,424.919983 
	C69.287109,423.622925 69.215599,422.204224 69.257477,420.372131 
z"/>
<path fill="#F41516" opacity="1.000000" stroke="none" 
	d="
M69.248199,429.315674 
	C69.921715,429.970367 70.485207,430.983704 71.047989,432.320923 
	C70.410912,431.654633 69.774551,430.664490 69.248199,429.315674 
z"/>
<path fill="#F41516" opacity="1.000000" stroke="none" 
	d="
M73.299683,432.754425 
	C73.208115,431.974548 73.459465,431.299835 73.710823,430.625092 
	C74.148453,431.104218 74.586067,431.583344 75.034363,432.354431 
	C74.577553,432.717438 74.110077,432.788483 73.299683,432.754425 
z"/>
<path fill="#FEFAF9" opacity="1.000000" stroke="none" 
	d="
M400.861389,122.002907 
	C400.860931,129.168884 400.919678,135.836151 400.845032,142.501953 
	C400.751282,150.870575 397.625092,154.130539 389.395111,154.135681 
	C297.229309,154.193298 205.063538,154.219620 112.897751,154.213425 
	C104.418892,154.212860 101.222809,150.913651 101.157303,142.276535 
	C101.075142,131.443909 101.064957,120.609497 101.163666,109.777130 
	C101.244362,100.920387 104.392738,97.813248 113.377785,97.809967 
	C205.210449,97.776497 297.043121,97.770844 388.875793,97.797348 
	C397.686218,97.799889 400.754181,101.040878 400.850616,110.003967 
	C400.891876,113.836761 400.860016,117.670334 400.861389,122.002907 
M126.549919,116.003731 
	C124.296112,116.003731 122.042313,116.003731 119.753113,116.003731 
	C119.753113,123.028969 119.753113,129.318985 119.753113,135.611145 
	C207.431915,135.611145 294.801666,135.611145 382.216675,135.611145 
	C382.216675,128.927078 382.216675,122.671242 382.216675,115.994362 
	C297.118164,115.994362 212.330460,115.994362 126.549919,116.003731 
z"/>
<path fill="#FEF9F8" opacity="1.000000" stroke="none" 
	d="
M144.175598,370.850067 
	C226.464890,370.850006 308.278564,370.848572 390.092224,370.857269 
	C396.586823,370.857941 400.546448,374.173370 400.609650,379.572113 
	C400.673584,385.033905 396.414307,388.812714 389.862061,388.818695 
	C346.872375,388.858002 303.882690,388.848572 260.892975,388.852325 
	C222.235565,388.855713 183.578125,388.869354 144.920776,388.822815 
	C142.621826,388.820038 140.182068,388.722717 138.054626,387.970978 
	C133.780960,386.460938 131.698517,383.030121 132.326401,378.579376 
	C132.939758,374.231750 135.520599,371.326019 140.203796,370.898956 
	C141.361008,370.793427 142.534134,370.862488 144.175598,370.850067 
z"/>
<path fill="#FEFAF8" opacity="1.000000" stroke="none" 
	d="
M242.000092,309.796021 
	C290.487366,309.789764 338.474640,309.781219 386.461914,309.785278 
	C388.459534,309.785431 390.474243,309.759430 392.451355,309.994598 
	C397.131042,310.551147 400.527313,314.201538 400.636444,318.595367 
	C400.750488,323.185181 397.286072,327.232056 392.519745,327.842987 
	C390.548157,328.095734 388.527405,328.002655 386.528992,328.002716 
	C306.050354,328.004944 225.571701,327.999786 145.093048,327.995789 
	C144.759811,327.995789 144.426544,328.001068 144.093323,327.999512 
	C136.436539,327.964325 132.170380,324.719147 132.177002,318.935760 
	C132.183670,313.107574 136.335007,309.839172 144.026077,309.830322 
	C176.517395,309.792908 209.008743,309.803192 242.000092,309.796021 
z"/>
<path fill="#FEFCFB" opacity="1.000000" stroke="none" 
	d="
M209.000000,248.998550 
	C269.327698,249.001541 329.155426,248.997528 388.983093,249.038605 
	C390.942566,249.039963 393.037964,249.139740 394.833679,249.818710 
	C399.084442,251.425903 401.104614,254.826675 400.446625,259.283997 
	C399.802277,263.649017 397.184967,266.575684 392.553070,266.988647 
	C389.739288,267.239471 386.892029,267.153015 384.059814,267.153015 
	C304.400726,267.153320 224.741623,267.148926 145.082520,267.133484 
	C136.491470,267.131836 132.252365,264.135864 132.195465,258.132111 
	C132.139099,252.184448 136.646423,248.981018 145.005905,248.985580 
	C166.170609,248.997162 187.335297,248.995132 209.000000,248.998550 
z"/>
<path fill="#EA1212" opacity="1.000000" stroke="none" 
	d="
M183.000000,186.016510 
	C251.977295,186.012527 320.454651,185.976639 388.931732,186.088959 
	C392.778107,186.095276 396.622467,187.322403 401.845886,188.217468 
	C401.334473,193.320297 401.656036,198.673157 400.073822,203.387009 
	C398.616577,207.728500 394.356567,209.538544 389.382477,208.364365 
	C387.631561,207.951065 385.747009,208.012161 383.923431,208.011780 
	C305.616058,207.995850 227.308640,208.038498 149.001450,207.917953 
	C142.814606,207.908432 136.629486,206.780121 130.249420,206.152664 
	C130.455338,203.449600 130.786423,201.987961 130.638962,200.576294 
	C129.599777,190.628616 133.506409,186.079437 143.513138,186.019699 
	C156.508301,185.942139 169.504333,186.010788 183.000000,186.016510 
M399.344513,201.707809 
	C402.174622,193.567307 398.466675,188.231400 389.858093,188.229935 
	C307.543243,188.215851 225.228409,188.220230 142.913574,188.236832 
	C136.290955,188.238174 132.141739,191.872803 132.242203,197.420059 
	C132.339386,202.786758 136.323654,206.129150 142.791382,206.129822 
	C225.106003,206.138275 307.420715,206.171906 389.734833,205.970001 
	C392.815369,205.962448 395.890198,203.627014 399.344513,201.707809 
z"/>
<path fill="#FCEEEA" opacity="1.000000" stroke="none" 
	d="
M103.290947,263.687805 
	C100.672844,259.618073 100.299034,255.383530 103.592758,252.506287 
	C105.877823,250.510208 110.039864,248.913528 112.719963,249.610886 
	C115.400620,250.308380 118.144432,253.732071 119.296898,256.591064 
	C120.775536,260.259155 118.684273,263.822754 115.234283,265.791992 
	C111.027794,268.193024 106.972008,267.568542 103.290947,263.687805 
z"/>
<path fill="#FBFCFB" opacity="1.000000" stroke="none" 
	d="
M117.013123,384.920929 
	C114.022896,388.527374 109.584282,389.104645 105.233284,385.822510 
	C104.546051,384.301117 104.298454,383.345673 103.976913,382.415802 
	C102.768784,378.921967 103.456047,375.666992 106.377144,373.612335 
	C108.978111,371.782928 112.099068,370.953766 114.728081,374.235443 
	C115.051651,374.639404 116.493927,374.147156 117.417793,374.070190 
	C117.417793,374.070221 117.781036,374.256744 117.670731,374.830627 
	C117.377991,378.576660 117.195557,381.748779 117.013123,384.920929 
z"/>
<path fill="#FBFCFA" opacity="1.000000" stroke="none" 
	d="
M109.030853,205.977982 
	C108.547768,205.933670 108.064674,205.889359 107.211899,205.451141 
	C106.632317,204.870117 106.398331,204.832321 106.140244,204.943848 
	C106.140244,204.943848 106.059654,204.995590 105.981735,204.591995 
	C105.518127,203.461700 104.908371,202.770340 104.787163,202.001923 
	C104.357819,199.280029 102.907585,195.725632 104.077240,194.002304 
	C105.467697,191.953644 109.135963,191.396759 111.875832,190.346344 
	C112.894722,189.955688 114.079338,189.997284 115.188385,189.841766 
	C115.188385,189.841751 115.619362,189.952362 115.803360,190.465942 
	C119.121063,198.067703 118.551941,201.230988 113.510361,204.041321 
	C112.096634,204.829391 110.528275,205.340057 109.030853,205.977982 
z"/>
<path fill="#FEDACF" opacity="1.000000" stroke="none" 
	d="
M117.271179,373.790710 
	C116.493927,374.147156 115.051651,374.639404 114.728081,374.235443 
	C112.099068,370.953766 108.978111,371.782928 106.377144,373.612335 
	C103.456047,375.666992 102.768784,378.921967 103.976913,382.415802 
	C104.298454,383.345673 104.546051,384.301117 104.913124,385.610352 
	C101.208595,383.492798 100.216629,379.538696 102.364502,375.475983 
	C104.498581,371.439392 109.662239,369.481323 113.895721,371.257812 
	C115.078873,371.754272 116.054008,372.746460 117.271179,373.790710 
z"/>
<path fill="#FFD1CB" opacity="1.000000" stroke="none" 
	d="
M114.990738,189.520325 
	C114.079338,189.997284 112.894722,189.955688 111.875832,190.346344 
	C109.135963,191.396759 105.467697,191.953644 104.077240,194.002304 
	C102.907585,195.725632 104.357819,199.280029 104.787163,202.001923 
	C104.908371,202.770340 105.518127,203.461700 105.965637,204.546906 
	C101.466553,201.885559 100.023857,197.526489 102.167473,193.242691 
	C104.440430,188.700439 109.290054,187.147171 114.990738,189.520325 
z"/>
<path fill="#FFD1CB" opacity="1.000000" stroke="none" 
	d="
M104.896950,311.891693 
	C109.467262,309.007507 113.547653,309.140350 116.882233,312.281891 
	C120.352905,315.551636 120.598282,319.514862 117.224731,324.745300 
	C116.799286,324.804871 116.570129,324.578552 116.693375,324.224152 
	C117.141327,322.108551 117.859947,320.314972 117.718399,318.592072 
	C117.255882,312.962250 113.527496,311.180542 105.196602,312.256775 
	C105.099236,312.133026 104.896950,311.891693 104.896950,311.891693 
z"/>
<path fill="#FFD1CB" opacity="1.000000" stroke="none" 
	d="
M116.913620,324.918274 
	C112.927422,328.610962 108.268089,328.994659 104.658600,326.050354 
	C100.943672,323.020081 100.438347,318.454376 103.669853,313.144470 
	C104.102188,313.078064 104.349052,313.281677 104.233475,313.649658 
	C104.253990,317.005096 103.417320,320.539734 104.726585,322.867310 
	C107.543488,327.875153 112.254715,326.311829 116.570129,324.578552 
	C116.570129,324.578552 116.799286,324.804871 116.913620,324.918274 
z"/>
<path fill="#FFD1CB" opacity="1.000000" stroke="none" 
	d="
M109.310425,206.142242 
	C110.528275,205.340057 112.096634,204.829391 113.510361,204.041321 
	C118.551941,201.230988 119.121063,198.067703 115.975143,190.607315 
	C119.769028,192.636810 120.489143,196.133286 119.182358,200.114655 
	C117.686806,204.671143 114.282722,206.557571 109.310425,206.142242 
z"/>
<path fill="#FEDACF" opacity="1.000000" stroke="none" 
	d="
M117.294151,384.710815 
	C117.195557,381.748779 117.377991,378.576660 117.720604,375.028625 
	C120.285759,378.013184 120.895523,381.317932 117.294151,384.710815 
z"/>
<path fill="#FFD1CB" opacity="1.000000" stroke="none" 
	d="
M103.981796,312.972656 
	C104.045753,312.592651 104.230087,312.318085 104.655685,311.967621 
	C104.896950,311.891693 105.099236,312.133026 105.035522,312.402954 
	C104.761841,312.873383 104.554260,313.076324 104.349052,313.281677 
	C104.349052,313.281677 104.102188,313.078064 103.981796,312.972656 
z"/>
<path fill="#FFD1CB" opacity="1.000000" stroke="none" 
	d="
M106.219048,205.117142 
	C106.398331,204.832321 106.632317,204.870117 106.921906,205.225967 
	C107.001595,205.394684 106.629883,205.476410 106.629883,205.476410 
	C106.629883,205.476410 106.297852,205.290436 106.219048,205.117142 
z"/>
<path fill="#F30506" opacity="1.000000" stroke="none" 
	d="
M127.046333,115.999046 
	C212.330460,115.994362 297.118164,115.994362 382.216675,115.994362 
	C382.216675,122.671242 382.216675,128.927078 382.216675,135.611145 
	C294.801666,135.611145 207.431915,135.611145 119.753113,135.611145 
	C119.753113,129.318985 119.753113,123.028969 119.753113,116.003731 
	C122.042313,116.003731 124.296112,116.003731 127.046333,115.999046 
z"/>
<path fill="#FEF7F6" opacity="1.000000" stroke="none" 
	d="
M399.156097,202.042099 
	C395.890198,203.627014 392.815369,205.962448 389.734833,205.970001 
	C307.420715,206.171906 225.106003,206.138275 142.791382,206.129822 
	C136.323654,206.129150 132.339386,202.786758 132.242203,197.420059 
	C132.141739,191.872803 136.290955,188.238174 142.913574,188.236832 
	C225.228409,188.220230 307.543243,188.215851 389.858093,188.229935 
	C398.466675,188.231400 402.174622,193.567307 399.156097,202.042099 
z"/>
<path fill="#FAFCFA" opacity="1.000000" stroke="none" 
	d="
M104.233475,313.649658 
	C104.554260,313.076324 104.761841,312.873383 105.132889,312.526703 
	C113.527496,311.180542 117.255882,312.962250 117.718399,318.592072 
	C117.859947,320.314972 117.141327,322.108551 116.693375,324.224152 
	C112.254715,326.311829 107.543488,327.875153 104.726585,322.867310 
	C103.417320,320.539734 104.253990,317.005096 104.233475,313.649658 
z"/>
</svg>