<svg xmlns="http://www.w3.org/2000/svg" xmlns:xlink="http://www.w3.org/1999/xlink" width="500" zoomAndPan="magnify" viewBox="0 0 375 374.999991" height="500" preserveAspectRatio="xMidYMid meet" version="1.0"><path fill="#f40407" d="M 225.214844 17.753906 C 258.6875 0.300781 300.128906 13.015625 317.746094 46.160156 C 335.359375 79.308594 322.507812 120.3125 289.039062 137.765625 L 261.515625 152.246094 C 285.226562 153.113281 307.839844 166.144531 319.679688 188.425781 C 337.296875 221.570312 324.472656 262.578125 290.972656 280.03125 L 144.210938 357.1875 C 110.742188 374.640625 69.300781 361.925781 51.683594 328.78125 C 34.066406 295.636719 46.917969 254.628906 80.390625 237.175781 L 107.910156 222.699219 C 84.199219 221.832031 61.589844 208.796875 49.75 186.515625 C 32.132812 153.371094 44.984375 112.367188 78.453125 94.910156 Z M 146 132.824219 L 234.832031 187.703125 L 146 242.320312 Z M 146 132.824219 " fill-opacity="1" fill-rule="evenodd"/><path fill="#000000" d="M 78.316406 63.347656 C 75.664062 65.683594 73.085938 68.097656 70.59375 70.589844 C 68.097656 73.085938 65.683594 75.664062 63.351562 78.316406 L 296.683594 311.648438 C 299.335938 309.316406 301.914062 306.902344 304.410156 304.40625 C 306.902344 301.914062 309.316406 299.335938 311.652344 296.683594 L 78.316406 63.347656 " fill-opacity="1" fill-rule="nonzero"/><path fill="#000000" d="M 324.609375 279.925781 C 318.691406 288.683594 311.894531 296.921875 304.40625 304.40625 C 296.917969 311.894531 288.683594 318.691406 279.921875 324.609375 C 271.085938 330.582031 261.640625 335.707031 251.847656 339.851562 C 231.480469 348.464844 209.828125 352.832031 187.5 352.832031 C 165.167969 352.832031 143.519531 348.464844 123.152344 339.851562 C 113.359375 335.707031 103.914062 330.582031 95.074219 324.609375 C 86.316406 318.691406 78.078125 311.894531 70.589844 304.40625 C 63.105469 296.921875 56.308594 288.683594 50.390625 279.925781 C 44.417969 271.085938 39.292969 261.640625 35.152344 251.847656 C 26.535156 231.480469 22.167969 209.832031 22.167969 187.5 C 22.167969 165.171875 26.535156 143.519531 35.152344 123.152344 C 39.292969 113.359375 44.417969 103.914062 50.390625 95.078125 C 56.308594 86.316406 63.105469 78.082031 70.589844 70.59375 C 78.078125 63.105469 86.316406 56.308594 95.074219 50.390625 C 103.914062 44.421875 113.359375 39.292969 123.152344 35.152344 C 143.519531 26.535156 165.167969 22.167969 187.5 22.167969 C 209.828125 22.167969 231.480469 26.535156 251.847656 35.152344 C 261.640625 39.292969 271.085938 44.421875 279.921875 50.390625 C 288.683594 56.308594 296.917969 63.105469 304.40625 70.59375 C 311.894531 78.082031 318.691406 86.316406 324.609375 95.078125 C 330.578125 103.914062 335.707031 113.359375 339.847656 123.152344 C 348.464844 143.519531 352.832031 165.171875 352.832031 187.5 C 352.832031 209.832031 348.464844 231.480469 339.847656 251.847656 C 335.707031 261.640625 330.578125 271.085938 324.609375 279.925781 Z M 187.5 0 C 83.945312 0 0 83.945312 0 187.5 C 0 291.054688 83.945312 375 187.5 375 C 291.054688 375 375 291.054688 375 187.5 C 375 83.945312 291.054688 0 187.5 0 " fill-opacity="1" fill-rule="nonzero"/></svg>